<svg width="180" height="28" viewBox="0 0 180 28" fill="none" xmlns="http://www.w3.org/2000/svg">
<g clip-path="url(#clip0_2429_713)">
<path d="M26.3552 14.9233V14.2913H30.5521V15.4512C30.5521 17.8769 31.9254 18.7993 35.3305 18.7993C38.1541 18.7993 39.3957 18.087 39.3957 16.3736V15.8987C39.3701 14.158 38.4448 13.5516 35.7529 12.9452L31.8724 11.8638C28.7838 10.967 26.8307 9.25362 26.8307 6.03697C26.8307 2.10799 29.5756 0 34.8807 0C40.1859 0 43.1155 2.24123 43.1155 6.32738V7.09267H38.9186V6.17022C38.9186 4.24501 37.783 3.48142 34.9064 3.48142C32.2675 3.48142 31.0532 4.14081 31.0532 5.64407V5.9601C31.0532 7.43603 32.2145 8.174 34.3523 8.6489L38.2584 9.70289C41.6892 10.5997 43.6166 12.1542 43.6166 15.7672C43.6166 20.3282 41.1094 22.3064 35.2484 22.3064C29.0711 22.3064 26.3535 19.7491 26.3535 14.9233H26.3552Z" fill="white"/>
<path d="M50.1098 7.5144C51.1394 5.85397 52.8547 4.64111 55.3106 4.64111C58.9004 4.64111 60.8808 7.25133 60.8808 11.2333V22.0431H56.9217V11.6808C56.9217 9.30806 55.9178 8.01662 53.6756 8.01662C50.693 8.01662 50.1115 10.2835 50.1115 11.8141V22.0431H46.1523V4.90418H50.1115V7.5144H50.1098Z" fill="white"/>
<path d="M74.3929 19.4314C73.0469 21.5138 70.8031 22.3047 68.3489 22.3047C65.1542 22.3047 63.2285 20.8288 63.2285 17.7966C63.2285 14.4741 66.1051 13.2356 68.6653 12.5506L70.5397 12.0757C72.8366 11.4949 74.2886 11.1003 74.2886 9.78149V9.64996C74.2886 8.75312 73.5224 7.9622 71.3059 7.9622C68.7714 7.9622 67.7692 8.91199 67.7692 10.5195V11.336H63.7826V10.8355C63.7826 6.8023 66.3428 4.63965 71.2529 4.63965C76.505 4.63965 78.2478 6.9065 78.2478 10.4135V22.0416H74.3946V19.4314H74.3929ZM69.5889 18.9839C72.0704 18.9839 73.9448 17.5865 74.2869 15.2137V13.21C73.8918 14.1597 72.6775 14.4228 71.1982 14.8977L69.5085 15.3453C67.9778 15.7928 67.2116 16.2951 67.2116 17.3234C67.2116 18.4833 67.9778 18.9839 69.5872 18.9839H69.5889Z" fill="white"/>
<path d="M85.3205 6.98679C86.1124 5.79955 87.6174 4.63965 90.2032 4.63965C94.4258 4.63965 96.9604 7.59322 96.9604 11.8895V15.212C96.9604 19.2452 94.4532 22.3047 90.2563 22.3047C87.7491 22.3047 86.2184 21.1978 85.3205 20.0908V28H81.334V4.90443H85.3205V6.98679ZM89.095 18.9036C91.7869 18.9036 92.8695 17.0313 92.8695 14.8704V12.0757C92.8695 9.94036 91.7869 8.04249 89.095 8.04249C86.6938 8.04249 85.5052 9.59871 85.3205 11.5222V15.4512C85.5052 17.3764 86.6665 18.9053 89.095 18.9053V18.9036Z" fill="white"/>
<path d="M103.322 3.87614H96.8281V0.263184H113.96V3.87614H107.466V22.0417H103.322V3.87614Z" fill="white"/>
<path d="M117.312 7.46144C118.051 5.80102 119.873 4.64111 122.117 4.64111C124.967 4.64111 127.184 6.25029 127.184 10.5209V12.6836H123.119V10.9702C123.119 8.94079 122.406 8.01662 120.637 8.01662C118.13 8.01662 117.311 9.75733 117.311 11.3392V22.0431H113.324V4.90418H117.311V7.46144H117.312Z" fill="white"/>
<path d="M139.774 19.4314C138.428 21.5138 136.184 22.3047 133.73 22.3047C130.535 22.3047 128.609 20.8288 128.609 17.7966C128.609 14.4741 131.486 13.2356 134.046 12.5506L135.921 12.0757C138.217 11.4949 139.669 11.1003 139.669 9.78149V9.64996C139.669 8.75312 138.903 7.9622 136.687 7.9622C134.152 7.9622 133.15 8.91199 133.15 10.5195V11.336H129.163V10.8355C129.163 6.8023 131.724 4.63965 136.634 4.63965C141.886 4.63965 143.629 6.9065 143.629 10.4135V22.0416H139.775V19.4314H139.774ZM134.97 18.9839C137.451 18.9839 139.326 17.5865 139.668 15.2137V13.21C139.273 14.1597 138.058 14.4228 136.579 14.8977L134.889 15.3453C133.359 15.7928 132.592 16.2951 132.592 17.3234C132.592 18.4833 133.359 18.9839 134.968 18.9839H134.97Z" fill="white"/>
<path d="M161.736 0.263184V22.0417H157.777V19.9594C156.985 21.1466 155.48 22.3065 152.894 22.3065C148.671 22.3065 146.137 19.3529 146.137 15.0567V11.7341C146.137 7.69921 148.644 4.64144 152.841 4.64144C155.348 4.64144 156.879 5.74839 157.777 6.85534V0.263184H161.736ZM154 18.9037C156.402 18.9037 157.59 17.3474 157.775 15.4239V11.495C157.59 9.56975 156.429 8.04086 154 8.04086C151.308 8.04086 150.226 9.91311 150.226 12.0741V14.8688C150.226 17.0041 151.308 18.9019 154 18.9019V18.9037Z" fill="white"/>
<path d="M164.348 12.4447C164.348 7.64617 166.935 4.63965 172.346 4.63965C177.256 4.63965 180.001 7.43435 180.001 12.5489V14.4467H168.466V14.843C168.466 17.2688 169.521 18.9036 172.372 18.9036C174.537 18.9036 175.355 17.9282 175.539 16.7939L175.592 16.1874H179.895L179.87 16.4505C179.553 19.9576 177.072 22.303 172.346 22.303C166.935 22.303 164.348 19.2982 164.348 14.4467V12.443V12.4447ZM175.883 11.5752L175.857 10.8628C175.541 9.04353 174.327 8.04249 172.215 8.04249C169.733 8.04249 168.651 9.46547 168.493 11.5752H175.885H175.883Z" fill="white"/>
<path d="M21.3535 7.97075L21.0765 7.49243L17.5295 1.35468C17.0728 0.565466 16.2297 0.0786133 15.3164 0.0786133H8.64653C7.73327 0.0786133 6.89012 0.565466 6.43349 1.35468L2.88477 7.49243L6.43349 13.6302C6.89012 14.4194 7.73327 14.9063 8.64653 14.9063H11.9849L7.69906 7.49243L11.9815 0.0854463L16.2622 7.49243L19.6826 13.4115L21.3518 10.5229C21.8085 9.73366 21.8085 8.75996 21.3518 7.97075H21.3535Z" fill="url(#paint0_linear_2429_713)"/>
<path d="M18.8172 14.906L15.2702 8.76825C14.8135 7.97904 13.9704 7.49219 13.0571 7.49219H9.71875L14.0046 14.906L9.71875 22.3198H13.0571C13.9704 22.3198 14.8135 21.833 15.2702 21.0438L18.8172 14.906Z" fill="url(#paint1_linear_2429_713)"/>
<path d="M5.43383 14.9059L2.01166 8.98682L0.342474 11.8755C-0.114158 12.6647 -0.114158 13.6384 0.342474 14.4276L0.619531 14.9059L4.16655 21.0437C4.62318 21.8329 5.46632 22.3197 6.37959 22.3197H9.71796L5.43212 14.9059H5.43383Z" fill="url(#paint2_linear_2429_713)"/>
</g>
<defs>
<linearGradient id="paint0_linear_2429_713" x1="10.8838" y1="-26.5999" x2="30.6018" y2="7.63467" gradientUnits="userSpaceOnUse">
<stop stop-color="#045856"/>
<stop offset="1" stop-color="#52C4C2"/>
</linearGradient>
<linearGradient id="paint1_linear_2429_713" x1="11.1402" y1="25.9409" x2="-19.1241" y2="-4.16794" gradientUnits="userSpaceOnUse">
<stop stop-color="#E6960D"/>
<stop offset="0.269327" stop-color="#F2CA86"/>
</linearGradient>
<linearGradient id="paint2_linear_2429_713" x1="1.51826" y1="25.5758" x2="-25.3205" y2="-6.14046" gradientUnits="userSpaceOnUse">
<stop stop-color="#E6960D"/>
<stop offset="0.269327" stop-color="#F2CA86"/>
</linearGradient>
<clipPath id="clip0_2429_713">
<rect width="180" height="28" fill="white"/>
</clipPath>
</defs>
</svg>
