<svg width="180" height="28" viewBox="0 0 180 28" fill="none" xmlns="http://www.w3.org/2000/svg">
<g clip-path="url(#clip0_2429_683)">
<path d="M26.3552 14.9292V14.2971H30.5521V15.457C30.5521 17.8827 31.9254 18.8052 35.3305 18.8052C38.1541 18.8052 39.3957 18.0929 39.3957 16.3795V15.9046C39.3701 14.1639 38.4448 13.5574 35.7529 12.951L31.8724 11.8697C28.7838 10.9729 26.8307 9.25948 26.8307 6.04283C26.8307 2.11385 29.5756 0.00585938 34.8807 0.00585938C40.1859 0.00585938 43.1155 2.24709 43.1155 6.33324V7.09853H38.9186V6.17608C38.9186 4.25087 37.783 3.48728 34.9064 3.48728C32.2675 3.48728 31.0532 4.14667 31.0532 5.64993V5.96596C31.0532 7.44189 32.2145 8.17986 34.3523 8.65475L38.2584 9.70875C41.6892 10.6056 43.6166 12.1601 43.6166 15.7731C43.6166 20.3341 41.1094 22.3123 35.2484 22.3123C29.0711 22.3123 26.3535 19.755 26.3535 14.9292H26.3552Z" fill="#0E0E0E"/>
<path d="M50.1098 7.52026C51.1394 5.85983 52.8547 4.64697 55.3106 4.64697C58.9004 4.64697 60.8808 7.25718 60.8808 11.2391V22.0489H56.9217V11.6867C56.9217 9.31392 55.9178 8.02248 53.6756 8.02248C50.693 8.02248 50.1115 10.2893 50.1115 11.8199V22.0489H46.1523V4.91004H50.1115V7.52026H50.1098Z" fill="#0E0E0E"/>
<path d="M74.3929 19.4373C73.0469 21.5196 70.8031 22.3106 68.3489 22.3106C65.1542 22.3106 63.2285 20.8346 63.2285 17.8025C63.2285 14.4799 66.1051 13.2414 68.6653 12.5564L70.5397 12.0815C72.8366 11.5007 74.2886 11.1061 74.2886 9.78735V9.65582C74.2886 8.75898 73.5224 7.96806 71.3059 7.96806C68.7714 7.96806 67.7692 8.91785 67.7692 10.5253V11.3419H63.7826V10.8413C63.7826 6.80816 66.3428 4.64551 71.2529 4.64551C76.505 4.64551 78.2478 6.91236 78.2478 10.4194V22.0475H74.3946V19.4373H74.3929ZM69.5889 18.9897C72.0704 18.9897 73.9448 17.5924 74.2869 15.2196V13.2158C73.8918 14.1656 72.6775 14.4287 71.1982 14.9036L69.5085 15.3511C67.9778 15.7987 67.2116 16.3009 67.2116 17.3293C67.2116 18.4892 67.9778 18.9897 69.5872 18.9897H69.5889Z" fill="#0E0E0E"/>
<path d="M85.3205 6.99265C86.1124 5.80541 87.6174 4.64551 90.2032 4.64551C94.4258 4.64551 96.9604 7.59908 96.9604 11.8953V15.2179C96.9604 19.2511 94.4532 22.3106 90.2563 22.3106C87.7491 22.3106 86.2184 21.2036 85.3205 20.0967V28.0059H81.334V4.91029H85.3205V6.99265ZM89.095 18.9094C91.7869 18.9094 92.8695 17.0372 92.8695 14.8762V12.0815C92.8695 9.94622 91.7869 8.04835 89.095 8.04835C86.6938 8.04835 85.5052 9.60457 85.3205 11.5281V15.4571C85.5052 17.3823 86.6665 18.9111 89.095 18.9111V18.9094Z" fill="#0E0E0E"/>
<path d="M103.322 3.882H96.8281V0.269043H113.96V3.882H107.466V22.0476H103.322V3.882Z" fill="#0E0E0E"/>
<path d="M117.312 7.4673C118.051 5.80688 119.873 4.64697 122.117 4.64697C124.967 4.64697 127.184 6.25615 127.184 10.5268V12.6894H123.119V10.9761C123.119 8.94665 122.406 8.02248 120.637 8.02248C118.13 8.02248 117.311 9.76319 117.311 11.345V22.0489H113.324V4.91004H117.311V7.4673H117.312Z" fill="#0E0E0E"/>
<path d="M139.774 19.4373C138.428 21.5196 136.184 22.3106 133.73 22.3106C130.535 22.3106 128.609 20.8346 128.609 17.8025C128.609 14.4799 131.486 13.2414 134.046 12.5564L135.921 12.0815C138.217 11.5007 139.669 11.1061 139.669 9.78735V9.65582C139.669 8.75898 138.903 7.96806 136.687 7.96806C134.152 7.96806 133.15 8.91785 133.15 10.5253V11.3419H129.163V10.8413C129.163 6.80816 131.724 4.64551 136.634 4.64551C141.886 4.64551 143.629 6.91236 143.629 10.4194V22.0475H139.775V19.4373H139.774ZM134.97 18.9897C137.451 18.9897 139.326 17.5924 139.668 15.2196V13.2158C139.273 14.1656 138.058 14.4287 136.579 14.9036L134.889 15.3511C133.359 15.7987 132.592 16.3009 132.592 17.3293C132.592 18.4892 133.359 18.9897 134.968 18.9897H134.97Z" fill="#0E0E0E"/>
<path d="M161.736 0.269043V22.0476H157.777V19.9652C156.985 21.1524 155.48 22.3124 152.894 22.3124C148.671 22.3124 146.137 19.3588 146.137 15.0625V11.74C146.137 7.70507 148.644 4.6473 152.841 4.6473C155.348 4.6473 156.879 5.75425 157.777 6.86119V0.269043H161.736ZM154 18.9095C156.402 18.9095 157.59 17.3533 157.775 15.4298V11.5008C157.59 9.57561 156.429 8.04672 154 8.04672C151.308 8.04672 150.226 9.91897 150.226 12.0799V14.8746C150.226 17.0099 151.308 18.9078 154 18.9078V18.9095Z" fill="#0E0E0E"/>
<path d="M164.348 12.4505C164.348 7.65203 166.935 4.64551 172.346 4.64551C177.256 4.64551 180.001 7.44021 180.001 12.5547V14.4526H168.466V14.8489C168.466 17.2746 169.521 18.9094 172.372 18.9094C174.537 18.9094 175.355 17.934 175.539 16.7997L175.592 16.1933H179.895L179.87 16.4564C179.553 19.9634 177.072 22.3088 172.346 22.3088C166.935 22.3088 164.348 19.304 164.348 14.4526V12.4488V12.4505ZM175.883 11.581L175.857 10.8687C175.541 9.04939 174.327 8.04835 172.215 8.04835C169.733 8.04835 168.651 9.47132 168.493 11.581H175.885H175.883Z" fill="#0E0E0E"/>
<path d="M21.3535 7.9766L21.0765 7.49829L17.5295 1.36054C17.0728 0.571325 16.2297 0.0844727 15.3164 0.0844727H8.64653C7.73327 0.0844727 6.89012 0.571325 6.43349 1.36054L2.88477 7.49829L6.43349 13.636C6.89012 14.4253 7.73327 14.9121 8.64653 14.9121H11.9849L7.69906 7.49829L11.9815 0.0913057L16.2622 7.49829L19.6826 13.4174L21.3518 10.5287C21.8085 9.73952 21.8085 8.76582 21.3518 7.9766H21.3535Z" fill="url(#paint0_linear_2429_683)"/>
<path d="M18.8172 14.9119L15.2702 8.77411C14.8135 7.9849 13.9704 7.49805 13.0571 7.49805H9.71875L14.0046 14.9119L9.71875 22.3257H13.0571C13.9704 22.3257 14.8135 21.8388 15.2702 21.0496L18.8172 14.9119Z" fill="url(#paint1_linear_2429_683)"/>
<path d="M5.43383 14.9118L2.01166 8.99268L0.342474 11.8813C-0.114158 12.6705 -0.114158 13.6443 0.342474 14.4335L0.619531 14.9118L4.16655 21.0495C4.62318 21.8387 5.46632 22.3256 6.37959 22.3256H9.71796L5.43212 14.9118H5.43383Z" fill="url(#paint2_linear_2429_683)"/>
</g>
<defs>
<linearGradient id="paint0_linear_2429_683" x1="10.8838" y1="-26.5941" x2="30.6018" y2="7.64053" gradientUnits="userSpaceOnUse">
<stop stop-color="#045856"/>
<stop offset="1" stop-color="#52C4C2"/>
</linearGradient>
<linearGradient id="paint1_linear_2429_683" x1="11.1402" y1="25.9468" x2="-19.1241" y2="-4.16208" gradientUnits="userSpaceOnUse">
<stop stop-color="#E6960D"/>
<stop offset="0.269327" stop-color="#F2CA86"/>
</linearGradient>
<linearGradient id="paint2_linear_2429_683" x1="1.51826" y1="25.5817" x2="-25.3205" y2="-6.1346" gradientUnits="userSpaceOnUse">
<stop stop-color="#E6960D"/>
<stop offset="0.269327" stop-color="#F2CA86"/>
</linearGradient>
<clipPath id="clip0_2429_683">
<rect width="180" height="28" fill="white" transform="translate(0 0.00585938)"/>
</clipPath>
</defs>
</svg>
